<?xml version="1.0" encoding="UTF-8"?>
<svg id="Layer_1" data-name="Layer 1" xmlns="http://www.w3.org/2000/svg" viewBox="0 0 14.74 14.72">
  <defs>
    <style>
      .cls-1 {
        fill: none;
        stroke: #e6e7e8;
        stroke-miterlimit: 10;
        stroke-width: .75px;
      }
    </style>
  </defs>
  <path class="cls-1" d="M7.35,9.14l-3.77,1.59c-.15.06-.33.03-.45-.09L.49,8c-.21-.21-.14-.55.13-.67l3.77-1.59c.15-.06.33-.03.45.09l2.63,2.63c.21.21.14.55-.13.67Z"/>
  <path class="cls-1" d="M7.34.63l-1.59,3.77c-.06.15-.03.33.09.45l2.63,2.63c.21.21.55.14.67-.13l1.59-3.77c.06-.15.03-.33-.09-.45L8,.49c-.21-.21-.55-.14-.67.13Z"/>
  <path class="cls-1" d="M10.13,8.29l2.17-.91c.15-.06.33-.03.45.09l1.5,1.5c.21.21.14.55-.13.67l-2.17.91c-.15.06-.33.03-.45-.09l-1.5-1.5c-.21-.21-.14-.55.13-.67Z"/>
  <path class="cls-1" d="M9.65,14.09l.91-2.17c.06-.15.03-.33-.09-.45l-1.5-1.5c-.21-.21-.55-.14-.67.13l-.91,2.17c-.06.15-.03.33.09.45l1.5,1.5c.21.21.55.14.67-.13Z"/>
</svg>