<?xml version="1.0" encoding="UTF-8"?>
<svg id="Layer_1" data-name="Layer 1" xmlns="http://www.w3.org/2000/svg" viewBox="0 0 11.5 14">
  <defs>
    <style>
      .cls-1 {
        fill: #e6e7e8;
      }
    </style>
  </defs>
  <path class="cls-1" d="M10.17,14H3.36c-.74,0-1.33-.6-1.33-1.33V3.27c0-.74.6-1.33,1.33-1.33h6.8c.74,0,1.33.6,1.33,1.33v9.4c0,.74-.6,1.33-1.33,1.33ZM3.36,2.61c-.36,0-.66.3-.66.66v9.4c0,.36.3.66.66.66h6.8c.36,0,.66-.3.66-.66V3.27c0-.36-.3-.66-.66-.66H3.36Z"/>
  <path class="cls-1" d="M.67,10.14h-.67V1.93C0,.86.86,0,1.93,0h5.56v.67H1.93c-.69,0-1.25.56-1.25,1.25v8.21Z"/>
</svg>