<?xml version="1.0" encoding="UTF-8" standalone="no" ?>
<!DOCTYPE svg PUBLIC "-//W3C//DTD SVG 1.1//EN" "http://www.w3.org/Graphics/SVG/1.1/DTD/svg11.dtd">
<svg xmlns="http://www.w3.org/2000/svg" xmlns:xlink="http://www.w3.org/1999/xlink" version="1.1" width="1080" height="1080" viewBox="0 0 1080 1080" xml:space="preserve">
<desc>Created with Fabric.js 5.2.4</desc>
<defs>
</defs>
<rect x="0" y="0" width="100%" height="100%" fill="transparent"/>
<g transform="matrix(Infinity NaN NaN Infinity 0 0)" id="0ae72c02-1110-46b2-bcea-af66ec2b646f"  >
</g>
<g transform="matrix(1 0 0 1 540 540)" id="8574604c-4c7f-451a-ade5-16ae9c09206b"  >
<rect style="stroke: none; stroke-width: 1; stroke-dasharray: none; stroke-linecap: butt; stroke-dashoffset: 0; stroke-linejoin: miter; stroke-miterlimit: 4; fill: rgb(255,255,255); fill-rule: nonzero; opacity: 1; visibility: hidden;" vector-effect="non-scaling-stroke"  x="-540" y="-540" rx="0" ry="0" width="1080" height="1080" />
</g>
<g transform="matrix(1 0 0 1 1250.02 1265.35)"  >
<rect style="stroke: none; stroke-width: 1; stroke-dasharray: none; stroke-linecap: butt; stroke-dashoffset: 0; stroke-linejoin: miter; stroke-miterlimit: 4; fill: rgb(255,255,255); fill-rule: nonzero; opacity: 1; visibility: hidden;" vector-effect="non-scaling-stroke"  x="-540" y="-540" rx="0" ry="0" width="1080" height="1080" />
</g>
<g transform="matrix(23.19 0 0 23.19 368.6 500.33)"  >
<path style="stroke: rgb(255,255,255); stroke-width: 1; stroke-dasharray: none; stroke-linecap: butt; stroke-dashoffset: 0; stroke-linejoin: miter; stroke-miterlimit: 4; fill: rgb(0,0,0); fill-rule: nonzero; opacity: 1;" vector-effect="non-scaling-stroke"  transform=" translate(-10.96, -18.29)" d="M 0.179502 12.6758 L 6.26128 23.9633 C 6.68279 24.748 7.70646 25.3516 8.54948 25.3516 L 20.9539 25.3516 C 21.7969 25.3516 22.1582 24.748 21.7367 23.9633 L 15.5947 12.6154 C 15.1732 11.8307 14.1495 11.2271 13.3065 11.2271 L 0.90209 11.2271 L 0.841874 11.2271 C 0.119286 11.2875 -0.242008 11.8911 0.179502 12.6758 Z" stroke-linecap="round" />
</g>
<g transform="matrix(23.19 0 0 23.19 813.45 750.22)"  >
<path style="stroke: rgb(255,255,255); stroke-width: 1; stroke-dasharray: none; stroke-linecap: butt; stroke-dashoffset: 0; stroke-linejoin: miter; stroke-miterlimit: 4; fill: rgb(0,0,0); fill-rule: nonzero; opacity: 1;" vector-effect="non-scaling-stroke"  transform=" translate(-30.15, -29.06)" d="M 23.7226 25.7739 L 27.3958 32.4739 C 27.6367 32.9568 28.2388 33.319 28.7807 33.319 L 36.1271 33.1983 C 36.6088 33.1983 36.8496 32.8361 36.6088 32.3532 L 32.9356 25.6532 C 32.6948 25.1703 32.0926 24.8081 31.5507 24.8081 L 24.1441 24.8685 C 23.6624 24.9892 23.4216 25.3513 23.7226 25.7739 Z" stroke-linecap="round" />
</g>
<g transform="matrix(23.19 0 0 23.19 669.41 355.52)"  >
<path style="stroke: rgb(255,255,255); stroke-width: 1; stroke-dasharray: none; stroke-linecap: butt; stroke-dashoffset: 0; stroke-linejoin: miter; stroke-miterlimit: 4; fill: rgb(56,159,214); fill-rule: nonzero; opacity: 1;" vector-effect="non-scaling-stroke"  transform=" translate(-23.94, -12.05)" d="M 23.7252 0.422526 L 16.3789 9.65774 C 15.8971 10.2613 15.8369 11.4082 16.2584 12.1929 L 22.4004 23.42 C 22.8219 24.2047 23.5445 24.3254 24.0865 23.6615 L 31.493 14.4262 C 31.9747 13.8226 32.0349 12.6758 31.6134 11.8911 L 25.4112 0.66397 C 25.1704 0.241444 24.8091 0 24.4478 0 C 24.2069 0 23.966 0.120722 23.7252 0.422526 Z" stroke-linecap="round" />
</g>
<g transform="matrix(23.19 0 0 23.19 628.41 837.37)"  >
<path style="stroke: rgb(255,255,255); stroke-width: 1; stroke-dasharray: none; stroke-linecap: butt; stroke-dashoffset: 0; stroke-linejoin: miter; stroke-miterlimit: 4; fill: rgb(56,159,214); fill-rule: nonzero; opacity: 1;" vector-effect="non-scaling-stroke"  transform=" translate(-22.16, -32.82)" d="M 22.0377 25.8948 L 17.6419 31.3876 C 17.3409 31.7498 17.2807 32.4138 17.5817 32.8966 L 21.2549 39.5967 C 21.4957 40.0796 21.9775 40.14 22.2786 39.7174 L 26.6743 34.2246 C 26.9754 33.8624 27.0356 33.1985 26.7345 32.7156 L 23.0614 26.0155 C 22.9409 25.7741 22.7001 25.593 22.5194 25.6533 C 22.2786 25.6533 22.1581 25.7137 22.0377 25.8948 Z" stroke-linecap="round" />
</g>
</svg>